<svg xmlns="http://www.w3.org/2000/svg" version="1.1" xmlns:xlink="http://www.w3.org/1999/xlink" xmlns:svgjs="http://svgjs.com/svgjs" width="512" height="512" x="0" y="0" viewBox="0 0 497 497" style="enable-background:new 0 0 512 512" xml:space="preserve" class=""><g><g xmlns="http://www.w3.org/2000/svg"><path d="m497 393.105v-272.344l-255.586-8.635-241.414 8.635v272.344l273.013 15.69z" fill="#fafafa" data-original="#fafafa"></path><path d="m276.171 105.076v306.712l220.829-18.683v-272.344z" fill="#edf6ff" data-original="#edf6ff"></path><path d="m467 107.13v301.235l30-15.26v-272.344z" fill="#ddebfd" data-original="#ddebfd"></path><path d="m0 393.105v36.684c0 4.275 3.466 7.741 7.741 7.741h481.517c4.275 0 7.741-3.466 7.741-7.741v-36.684z" fill="#ddebfd" data-original="#ddebfd"></path><path d="m497 120.761v-53.551c0-4.276-3.466-7.741-7.741-7.741h-481.518c-4.275 0-7.741 3.466-7.741 7.741v53.551z" fill="#80b6fc" data-original="#80b6fc"></path><path d="m467 393.105v36.684c0 4.275-3.466 7.741-7.741 7.741h30c4.275 0 7.741-3.466 7.741-7.741v-36.684z" fill="#bed9fd" data-original="#bed9fd"></path><path d="m489.259 59.469h-30c4.275 0 7.741 3.466 7.741 7.741v53.551h30v-53.551c0-4.275-3.466-7.741-7.741-7.741z" fill="#62a4fb" data-original="#62a4fb"></path><circle cx="390.415" cy="90.115" fill="#fafafa" r="7.5" data-original="#fafafa"></circle><circle cx="421.546" cy="90.115" fill="#fafafa" r="7.5" data-original="#fafafa"></circle><circle cx="452.677" cy="90.115" fill="#fafafa" r="7.5" data-original="#fafafa"></circle><path d="m191.19 319.098-10.192 4.142c-30.311 12.318-64.232 12.325-94.548.02l-10.257-4.163c-1.154-.468-1.908-1.589-1.908-2.834v-65.046h118.813v65.047c0 1.245-.754 2.366-1.908 2.834z" fill="#5392f9" data-original="#5392f9"></path><path d="m163.098 261.483v48.78c0 7.896-4.784 15.005-12.1 17.977-3.875 1.575-7.809 2.945-11.787 4.117 14.219-.624 28.357-3.66 41.787-9.117l10.192-4.142c1.153-.469 1.907-1.589 1.907-2.833v-54.782z" fill="#4981f8" data-original="#4981f8"></path><path d="m142.008 201.17 86.7 38.955c3.731 2.005 3.567 7.41-.279 9.185l-87.376 40.316c-4.671 2.155-10.051 2.155-14.721 0l-87.378-40.316c-3.846-1.775-4.01-7.18-.279-9.185l86.7-38.955c5.192-2.791 11.44-2.791 16.633 0z" fill="#80b6fc" data-original="#80b6fc"></path><path d="m228.707 240.125-9.457-4.249c-.154 1.844-1.255 3.664-3.241 4.583l-90.898 42.062c-3.572 1.653-7.479 2.114-11.151 1.398l12.37 5.708c4.671 2.155 10.051 2.155 14.721 0l87.376-40.316c3.847-1.776 4.011-7.181.28-9.186z" fill="#62a4fb" data-original="#62a4fb"></path><g fill="#bed9fd"><circle cx="324.644" cy="178.996" r="6.806" fill="#bed9fd" data-original="#bed9fd"></circle><circle cx="324.644" cy="218.685" r="6.806" fill="#bed9fd" data-original="#bed9fd"></circle><circle cx="324.644" cy="258.373" r="6.806" fill="#bed9fd" data-original="#bed9fd"></circle><path d="m331.45 298.061c0 3.759-3.047 6.806-6.806 6.806s-6.806-3.047-6.806-6.806 3.047-6.806 6.806-6.806 6.806 3.047 6.806 6.806z" fill="#bed9fd" data-original="#bed9fd"></path><circle cx="324.644" cy="337.749" r="6.806" fill="#bed9fd" data-original="#bed9fd"></circle><path d="m444.913 185.802h-95.21c-3.759 0-6.806-3.047-6.806-6.806s3.047-6.806 6.806-6.806h95.21c3.759 0 6.806 3.047 6.806 6.806s-3.047 6.806-6.806 6.806z" fill="#bed9fd" data-original="#bed9fd"></path><path d="m444.913 225.49h-95.21c-3.759 0-6.806-3.047-6.806-6.806s3.047-6.806 6.806-6.806h95.21c3.759 0 6.806 3.047 6.806 6.806s-3.047 6.806-6.806 6.806z" fill="#bed9fd" data-original="#bed9fd"></path><path d="m444.913 265.179h-95.21c-3.759 0-6.806-3.047-6.806-6.806s3.047-6.806 6.806-6.806h95.21c3.759 0 6.806 3.047 6.806 6.806s-3.047 6.806-6.806 6.806z" fill="#bed9fd" data-original="#bed9fd"></path><path d="m444.913 304.867h-95.21c-3.759 0-6.806-3.047-6.806-6.806s3.047-6.806 6.806-6.806h95.21c3.759 0 6.806 3.047 6.806 6.806s-3.047 6.806-6.806 6.806z" fill="#bed9fd" data-original="#bed9fd"></path><path d="m444.913 344.555h-95.21c-3.759 0-6.806-3.047-6.806-6.806s3.047-6.806 6.806-6.806h95.21c3.759 0 6.806 3.047 6.806 6.806s-3.047 6.806-6.806 6.806z" fill="#bed9fd" data-original="#bed9fd"></path></g></g></g></svg>