<svg xmlns="http://www.w3.org/2000/svg" version="1.1" xmlns:xlink="http://www.w3.org/1999/xlink" xmlns:svgjs="http://svgjs.com/svgjs" width="512" height="512" x="0" y="0" viewBox="0 0 96 96" style="enable-background:new 0 0 512 512" xml:space="preserve" class=""><g><g xmlns="http://www.w3.org/2000/svg"><path d="m57.9834 38.3289h-19.9668v19.9673h19.9668zm-1.9583 18.0089h-16.0502v-16.0506h16.0501v16.0506z" fill="#000000" data-original="#000000"></path><path d="m4.3597 61.4239c1.5072 0 2.7704-1.0038 3.1948-2.3733h5.3686l5.3328-7.2467h14.0468v3.7646h-7.7152l-5.3304 6.5845v5.8489c-1.3745.4215-2.3834 1.6871-2.3834 3.1978 0 1.8527 1.5075 3.3601 3.3601 3.3601 1.8527 0 3.3597-1.5075 3.3597-3.3601 0-1.5089-1.0062-2.7734-2.3781-3.1964v-5.1571l4.3063-5.3194h6.781v3.2272c0 1.5247 1.0582 2.7986 2.4761 3.1505v14.987l-8.1863 8.1863c-.4485-.2222-.9465-.3587-1.4801-.3587-1.8527 0-3.3597 1.507-3.3597 3.3597s1.507 3.3601 3.3597 3.3601 3.3601-1.5075 3.3601-3.3601c0-.6053-.1736-1.1659-.4549-1.6569l8.7195-8.7195v-15.693h5.1741v10.32c-1.3731.4223-2.3805 1.6877-2.3805 3.1976 0 1.8527 1.507 3.3597 3.3597 3.3597s3.3597-1.507 3.3597-3.3597c0-1.5099-1.0074-2.7753-2.3805-3.1976v-10.32h5.6599v14.7262l7.2467 5.3323v4.3735c-1.3751.4211-2.3843 1.6876-2.3843 3.1988 0 1.8527 1.507 3.3597 3.3597 3.3597s3.3601-1.507 3.3601-3.3597c0-1.5084-1.0059-2.7728-2.3772-3.1964v-5.3665l-7.2467-5.3323v-13.7355h3.7646v7.4035l6.584 5.3304h5.8529c.4218 1.3741 1.6876 2.3824 3.1981 2.3824 1.8527 0 3.3597-1.507 3.3597-3.3597s-1.507-3.3597-3.3597-3.3597c-1.5091 0-2.7741 1.0064-3.1969 2.3786h-5.1609l-5.319-4.3063v-6.4693h3.2306c1.7948 0 3.2554-1.4606 3.2554-3.2554v-1.4367h15.1929l8.1874 8.1869c-.2218.4481-.3579.9456-.3579 1.4786 0 1.8527 1.507 3.3597 3.3597 3.3597s3.3601-1.507 3.3601-3.3597-1.5075-3.3597-3.3601-3.3597c-.6059 0-1.1669.1738-1.6582.4555l-8.7201-8.7196h-16.0036v-5.1741h10.6329c.4225 1.3729 1.6877 2.38 3.1973 2.38 1.8527 0 3.3597-1.507 3.3597-3.3597s-1.507-3.3601-3.3597-3.3601c-1.51 0-2.7755 1.008-3.1976 2.3815h-10.6326v-5.6599h15.0365l5.3328-7.2467h4.3758c.4214 1.3746 1.6876 2.3834 3.1984 2.3834 1.8527 0 3.3597-1.507 3.3597-3.3597s-1.507-3.3597-3.3597-3.3597c-1.5087 0-2.7734 1.0059-3.1966 2.3776h-5.3682l-5.3328 7.2467h-14.0459v-3.7646h7.7143l5.3304-6.584v-5.8532c1.3751-.421 2.3843-1.6871 2.3843-3.1983 0-1.8527-1.507-3.3597-3.3597-3.3597s-3.3597 1.507-3.3597 3.3597c0 1.5084 1.0055 2.7726 2.3767 3.1959v5.1624l-4.3063 5.319h-6.7801v-1.0145c0-1.7948-1.4606-3.2554-3.2554-3.2554h-2.5928v-15.5047l8.1885-8.1881c.4482.222.9458.3581 1.4789.3581 1.8527 0 3.3601-1.507 3.3601-3.3597s-1.5075-3.3601-3.3601-3.3601c-1.8527 0-3.3597 1.5075-3.3597 3.3601 0 .6058.1737 1.1666.4553 1.6578l-8.7213 8.721v16.3155h-5.1741v-10.9446c1.3738-.4218 2.3819-1.6876 2.3819-3.198 0-1.8527-1.507-3.3597-3.3597-3.3597s-3.3601 1.507-3.3601 3.3597c0 1.5093 1.007 2.7743 2.3795 3.1971v10.9453h-5.6594v-15.3481l-7.2467-5.3328v-4.3759c1.3755-.421 2.3853-1.6875 2.3853-3.1988.0001-1.8527-1.5074-3.3597-3.36-3.3597-1.8527 0-3.3597 1.507-3.3597 3.3597 0 1.5082 1.0053 2.7726 2.3762 3.1962v5.3692l7.2467 5.3328v14.3576h-3.7651v-8.026l-6.584-5.3304h-5.8512c-.4208-1.3753-1.6871-2.3848-3.1984-2.3848-1.8527 0-3.3597 1.507-3.3597 3.3597s1.507 3.3597 3.3597 3.3597c1.5082 0 2.7723-1.0053 3.1957-2.3762h5.1606l5.319 4.3063v7.1061c-1.4623.0645-2.6708 1.0908-3.0101 2.4651h-15.2977l-8.188-8.1876c.223-.4491.36-.9477.36-1.4821 0-1.8527-1.5075-3.3597-3.3601-3.3597s-3.3597 1.507-3.3597 3.3597 1.507 3.3597 3.3597 3.3597c.6044 0 1.1643-.1731 1.6549-.4536l8.7225 8.722h16.0047v5.1741h-10.6318c-.4211-1.375-1.6871-2.3843-3.1981-2.3843-1.8527 0-3.3597 1.5075-3.3597 3.3601s1.507 3.3597 3.3597 3.3597c1.5086 0 2.7729-1.0057 3.196-2.3772h10.6337v5.6599h-15.0374l-5.3328 7.2467h-4.3735c-.4199-1.3767-1.6869-2.3877-3.1993-2.3877-1.8527-.0001-3.3597 1.5069-3.3597 3.3595s1.507 3.3597 3.3597 3.3597zm17.2755 9.7759c0 .7731-.6287 1.4018-1.4013 1.4018-.7731 0-1.4018-.6287-1.4018-1.4018 0-.7726.6287-1.4013 1.4018-1.4013.7726-.0001 1.4013.6287 1.4013 1.4013zm3.4773 20.2809c-.7726 0-1.4013-.6287-1.4013-1.4018 0-.7726.6287-1.4013 1.4013-1.4013.7731 0 1.4018.6287 1.4018 1.4013 0 .7731-.6287 1.4018-1.4018 1.4018zm19.1793-13.9536c0 .7726-.6287 1.4013-1.4013 1.4013s-1.4013-.6287-1.4013-1.4013c0-.7731.6287-1.4018 1.4013-1.4018s1.4013.6287 1.4013 1.4018zm14.8615 14.1133c0 .7726-.6287 1.4013-1.4018 1.4013-.7726 0-1.4013-.6287-1.4013-1.4013 0-.7731.6287-1.4018 1.4013-1.4018.7731-.0001 1.4018.6287 1.4018 1.4018zm11.7342-17.2755c.7726 0 1.4013.6287 1.4013 1.4013s-.6287 1.4013-1.4013 1.4013c-.7731 0-1.4018-.6287-1.4018-1.4013s.6287-1.4013 1.4018-1.4013zm19.1913-6.7834c.7731 0 1.4018.6287 1.4018 1.4013s-.6287 1.4013-1.4018 1.4013c-.7726 0-1.4013-.6287-1.4013-1.4013s.6287-1.4013 1.4013-1.4013zm-12.5518-17.778c.7726 0 1.4013.6287 1.4013 1.4018 0 .7726-.6287 1.4013-1.4013 1.4013-.7731 0-1.4018-.6287-1.4018-1.4013 0-.7731.6287-1.4018 1.4018-1.4018zm14.1133-14.8611c.7726 0 1.4013.6287 1.4013 1.4013s-.6287 1.4013-1.4013 1.4013c-.7731 0-1.4018-.6287-1.4018-1.4013s.6287-1.4013 1.4018-1.4013zm-17.2755-11.7342c0-.7726.6287-1.4013 1.4013-1.4013s1.4013.6287 1.4013 1.4013-.6287 1.4013-1.4013 1.4013-1.4013-.6287-1.4013-1.4013zm-6.8489-18.6888c.7731 0 1.4018.6287 1.4018 1.4018 0 .7726-.6287 1.4013-1.4018 1.4013-.7726 0-1.4013-.6287-1.4013-1.4013 0-.7731.6287-1.4018 1.4013-1.4018zm-19.1793 13.9536c0-.7726.6287-1.4013 1.4018-1.4013.7726 0 1.4013.6287 1.4013 1.4013 0 .7731-.6287 1.4018-1.4013 1.4018-.7731 0-1.4018-.6287-1.4018-1.4018zm-14.8611-14.1133c0-.7726.6287-1.4013 1.4013-1.4013.7731 0 1.4018.6287 1.4018 1.4013 0 .7731-.6287 1.4018-1.4018 1.4018-.7726 0-1.4013-.6287-1.4013-1.4018zm-11.7342 17.2755c-.7726 0-1.4013-.6287-1.4013-1.4013s.6287-1.4013 1.4013-1.4013 1.4013.6287 1.4013 1.4013-.6287 1.4013-1.4013 1.4013zm-15.8206 5.1913c-.7726 0-1.4013-.6287-1.4013-1.4013s.6287-1.4013 1.4013-1.4013c.7731 0 1.4018.6287 1.4018 1.4013s-.6287 1.4013-1.4018 1.4013zm12.5523 17.778c-.7726 0-1.4013-.6287-1.4013-1.4013 0-.7731.6287-1.4018 1.4013-1.4018s1.4013.6287 1.4013 1.4018c0 .7726-.6287 1.4013-1.4013 1.4013zm15.7881-8.7336c0-.7153.5819-1.2971 1.2976-1.2971h24.8827c.7153 0 1.2971.5819 1.2971 1.2971v24.8832c0 .7153-.5819 1.2971-1.2971 1.2971h-24.8827c-.7157 0-1.2976-.5819-1.2976-1.2971zm-29.9014 20.792c.7726 0 1.4013.6287 1.4013 1.4013s-.6287 1.4013-1.4013 1.4013-1.4013-.6287-1.4013-1.4013.6286-1.4013 1.4013-1.4013z" fill="#000000" data-original="#000000"></path></g></g></svg>